# File created by Blade
# Date/Time:  Tue Sep 30 19:31:45 2014
#---------------------------------------------------------
:version 1.10
:name HOM
:units
  mass 1.0
  length 1.000000
  angle deg
:documentation
     Acclaim Skeleton File
:root
   axis xyz
   order TX TY TZ RX RY RZ
   position 0.000000 0.000000 0.000000
   orientation 0 0 0
:bonedata
   begin
      id 1
      name Spine_dum
      direction 0.000000 1.000000 0.000000
      length 3.241213
      axis 0.0 0.0 0.0 xyz
   end
   begin
      id 2
      name LeftUpLeg_dum
      direction 1.000000 0.000000 0.000000
      length 3.434019
      axis 0.0 0.0 0.0 xyz
   end
   begin
      id 3
      name RightUpLeg_dum
      direction -1.000000 0.000000 0.000000
      length 3.434019
      axis 0.0 0.0 0.0 xyz
   end
   begin
      id 4
      name Spine
      direction 0.000000 1.000000 0.000000
      length 0.000000
      axis 0.0 0.0 0.0 xyz
      dof rx ry rz
   end
   begin
      id 5
      name Spine_dum1
      direction 0.000000 1.000000 0.000000
      length 18.382958
      axis 0.0 0.0 0.0 xyz
   end
   begin
      id 6
      name Spine_dum2
      direction 0.000000 1.000000 0.000000
      length 12.828261
      axis 0.0 0.0 0.0 xyz
   end
   begin
      id 7
      name Spine_dum3
      direction 0.000000 1.000000 0.000000
      length 12.828261
      axis 0.0 0.0 0.0 xyz
   end
   begin
      id 8
      name Head
      direction 0.000000 1.000000 0.000000
      length 4.527550
      axis 0.0 0.0 0.0 xyz
      dof rx ry rz
   end
   begin
      id 9
      name LeftShoulder
      direction 1.000000 0.000000 0.000000
      length 7.748055
      axis 0.0 0.0 -90.0 xyz
      dof rx ry rz
   end
   begin
      id 10
      name LeftArm
      direction 1.000000 0.000000 0.000000
      length 10.635614
      axis 0.0 0.0 -90.0 xyz
      dof rx ry rz
   end
   begin
      id 11
      name LeftForeArm
      direction 1.000000 0.000000 0.000000
      length 8.346755
      axis 0.0 0.0 -90.0 xyz
      dof ry rz rx
   end
   begin
      id 12
      name LeftHand
      direction 0.000000 0.000000 0.000000
      length 0.000000
      axis 0.0 0.0 -90.0 xyz
      dof rx ry rz
   end
   begin
      id 13
      name LeftHand_dum1
      direction 0.000000 0.000000 0.000000
      length 0.000000
      axis 0.0 0.0 -90.0 xyz
   end
   begin
      id 14
      name LeftHand_dum2
      direction 1.000000 0.000000 0.000000
      length 3.937000
      axis 0.0 0.0 -90.0 xyz
   end
   begin
      id 15
      name LeftHandThumb1
      direction 0.000000 0.000000 1.000000
      length 3.937000
      axis 0.0 0.0 -90.0 xyz
      dof rx rz ry
   end
   begin
      id 16
      name RightShoulder
      direction -1.000000 0.000000 0.000000
      length 7.748055
      axis 0.0 0.0 90.0 xyz
      dof rx ry rz
   end
   begin
      id 17
      name RightArm
      direction -1.000000 0.000000 0.000000
      length 10.635614
      axis 0.0 0.0 90.0 xyz
      dof rx ry rz
   end
   begin
      id 18
      name RightForeArm
      direction -1.000000 0.000000 0.000000
      length 8.346755
      axis 0.0 0.0 90.0 xyz
      dof ry rz rx
   end
   begin
      id 19
      name RightHand
      direction 0.000000 0.000000 0.000000
      length 0.000000
      axis 0.0 0.0 90.0 xyz
      dof rx ry rz
   end
   begin
      id 20
      name RightHand_dum1
      direction 0.000000 0.000000 0.000000
      length 0.000000
      axis 0.0 0.0 90.0 xyz
   end
   begin
      id 21
      name RightHand_dum2
      direction -1.000000 0.000000 0.000000
      length 3.937000
      axis 0.0 0.0 90.0 xyz
   end
   begin
      id 22
      name RightHandThumb1
      direction 0.000000 0.000000 1.000000
      length 3.937000
      axis 0.0 0.0 90.0 xyz
      dof rx rz ry
   end
   begin
      id 23
      name LeftUpLeg
      direction 0.000000 -1.000000 0.000000
      length 15.713025
      axis 0.0 0.0 0.0 xyz
      dof rx ry rz
   end
   begin
      id 24
      name LeftLeg
      direction 0.000000 -1.000000 0.000000
      length 14.435119
      axis 0.0 0.0 0.0 xyz
      dof rx ry rz
   end
   begin
      id 25
      name LeftFoot
      direction 0.000000 -0.258819 0.965926
      length 4.938895
      axis 15.0 0.0 0.0 xyz
      dof rx ry rz
   end
   begin
      id 26
      name LeftToeBase
      direction 0.000000 0.000000 1.000000
      length 2.952750
      axis 0.0 0.0 0.0 xyz
      dof rx ry rz
   end
   begin
      id 27
      name RightUpLeg
      direction 0.000000 -1.000000 0.000000
      length 15.713025
      axis 0.0 0.0 0.0 xyz
      dof rx ry rz
   end
   begin
      id 28
      name RightLeg
      direction 0.000000 -1.000000 0.000000
      length 14.435119
      axis 0.0 0.0 0.0 xyz
      dof rx ry rz
   end
   begin
      id 29
      name RightFoot
      direction 0.000000 -0.258819 0.965926
      length 4.938895
      axis 15.0 0.0 0.0 xyz
      dof rx ry rz
   end
   begin
      id 30
      name RightToeBase
      direction 0.000000 0.000000 1.000000
      length 2.952750
      axis 0.0 0.0 0.0 xyz
      dof rx ry rz
   end
:hierarchy
   begin
      root Spine_dum LeftUpLeg_dum RightUpLeg_dum
      Spine_dum Spine
      LeftUpLeg_dum LeftUpLeg
      RightUpLeg_dum RightUpLeg
      Spine Spine_dum1 Spine_dum2 Spine_dum3
      Spine_dum1 Head
      Spine_dum2 LeftShoulder
      Spine_dum3 RightShoulder
      LeftShoulder LeftArm
      LeftArm LeftForeArm
      LeftForeArm LeftHand
      LeftHand LeftHand_dum1 LeftHand_dum2
      LeftHand_dum1 LeftHandThumb1
      RightShoulder RightArm
      RightArm RightForeArm
      RightForeArm RightHand
      RightHand RightHand_dum1 RightHand_dum2
      RightHand_dum1 RightHandThumb1
      LeftUpLeg LeftLeg
      LeftLeg LeftFoot
      LeftFoot LeftToeBase
      RightUpLeg RightLeg
      RightLeg RightFoot
      RightFoot RightToeBase
   end

# File created by Blade
# Date/Time:  Mon Sep 22 19:00:17 2014
# Frame Rate: 120.000 fps
#------------------------------------------------------
:FULLY-SPECIFIED
:DEGREES
1857
root -0.721338 32.829471 -3.770118 38.002839 2.720231 0.869733
Spine -44.962062 1.358962 -4.145595
Head 11.941893 -14.708196 -14.013238
LeftShoulder -10.835311 43.007469 10.170681
LeftArm 70.657802 33.304747 -51.437910
LeftForeArm 8.108208 0.000000 5.534914
LeftHand -18.697648 -0.000000 -7.211786
LeftHandThumb1 -26.253704 0.000000 33.147579
RightShoulder -22.826062 -7.394039 -45.791274
RightArm -239.098949 33.071946 -224.856386
RightForeArm 86.756812 -0.000000 135.256797
RightHand 23.336500 -0.000000 6.767521
RightHandThumb1 -24.326973 -0.000000 -32.862282
LeftUpLeg -32.709141 5.191351 -0.875699
LeftLeg -0.260460 -0.000000 0.000000
LeftFoot -1.608231 -0.476889 -2.914728
LeftToeBase 1.709734 -0.000000 -0.000000
RightUpLeg -32.584365 -12.410549 6.030823
RightLeg -2.580173 -0.000000 0.000000
RightFoot -5.405792 -4.709190 19.119167
RightToeBase 16.013390 -0.000000 -0.000000
1858
root -0.724570 32.829512 -3.773734 38.002460 2.713737 0.861084
Spine -44.948478 1.340410 -4.161332
Head 11.886278 -14.871848 -13.879677
LeftShoulder -10.839053 43.023627 10.165030
LeftArm 70.654730 33.372328 -51.436006
LeftForeArm 8.120780 -0.000000 5.469745
LeftHand -18.671672 -0.000000 -7.485282
LeftHandThumb1 -26.253704 0.000000 33.147579
RightShoulder -22.815961 -7.411496 -45.779704
RightArm -239.134678 33.108100 -224.902200
RightForeArm 86.597438 0.000000 135.192058
RightHand 23.289404 0.000000 6.790102
RightHandThumb1 -24.326973 -0.000000 -32.862282
LeftUpLeg -32.714572 5.202719 -0.865371
LeftLeg -0.260264 -0.000000 0.000000
LeftFoot -1.598844 -0.487130 -2.852186
LeftToeBase 1.673400 -0.000000 -0.000000
RightUpLeg -32.592885 -12.421416 6.055628
RightLeg -2.583255 -0.000000 0.000000
RightFoot -5.396653 -4.681778 19.119927
RightToeBase 16.028996 -0.000000 -0.000000
1859
root -0.726649 32.829067 -3.777525 38.005437 2.699705 0.853419
Spine -44.933835 1.332310 -4.177530
Head 11.815069 -15.058544 -13.757293
LeftShoulder -10.868413 43.035991 10.130849
LeftArm 70.639416 33.436430 -51.433232
LeftForeArm 8.135223 0.000000 5.439462
LeftHand -18.613438 -0.000000 -7.410720
LeftHandThumb1 -26.253704 0.000000 33.147579
RightShoulder -22.809506 -7.435824 -45.776080
RightArm -239.122418 33.131049 -224.917280
RightForeArm 86.429173 0.000000 135.123547
RightHand 23.255095 -0.000000 6.816315
RightHandThumb1 -24.326973 -0.000000 -32.862282
LeftUpLeg -32.721745 5.197172 -0.857317
LeftLeg -0.265606 -0.000000 0.000000
LeftFoot -1.606966 -0.425853 -2.896599
LeftToeBase 1.698845 -0.000000 -0.000000
RightUpLeg -32.601356 -12.439453 6.081814
RightLeg -2.597816 -0.000000 0.000000
RightFoot -5.364634 -4.644990 19.097387
RightToeBase 16.028625 -0.000000 -0.000000
1860
root -0.729529 32.829620 -3.782614 38.011047 2.679359 0.840213
Spine -44.922305 1.332474 -4.207969
Head 11.771726 -15.233862 -13.627369
LeftShoulder -10.883825 43.061624 10.107883
LeftArm 70.616932 33.465809 -51.458361
LeftForeArm 8.298447 -0.000000 5.396587
LeftHand -18.461963 -0.000000 -7.547598
LeftHandThumb1 -26.253704 0.000000 33.147579
RightShoulder -22.808628 -7.457822 -45.754724
RightArm -239.112963 33.158355 -224.926112
RightForeArm 86.190959 0.000000 135.074819
RightHand 23.103316 -0.000000 6.692243
RightHandThumb1 -24.326973 -0.000000 -32.862282
LeftUpLeg -32.734655 5.209845 -0.843341
LeftLeg -0.258802 -0.000000 0.000000
LeftFoot -1.613258 -0.438509 -2.845802
LeftToeBase 1.695622 -0.000000 -0.000000
RightUpLeg -32.614416 -12.433366 6.099247
RightLeg -2.610397 -0.000000 0.000000
RightFoot -5.328078 -4.613857 19.143785
RightToeBase 16.005701 -0.000000 -0.000000
1861
root -0.731580 32.829215 -3.788367 38.016876 2.650717 0.824189
Spine -44.906787 1.347044 -4.240453
Head 11.717393 -15.395875 -13.505194
LeftShoulder -10.889448 43.062984 10.105474
LeftArm 70.560075 33.525486 -51.502021
LeftForeArm 8.333062 -0.000000 5.407740
LeftHand -18.417319 -0.000000 -7.524492
LeftHandThumb1 -26.253704 0.000000 33.147579
RightShoulder -22.831961 -7.456408 -45.746558
RightArm -239.121973 33.167900 -224.966614
RightForeArm 86.013084 -0.000000 135.039892
RightHand 23.088623 -0.000000 6.768753
RightHandThumb1 -24.326973 -0.000000 -32.862282
LeftUpLeg -32.754210 5.229557 -0.850453
LeftLeg -0.256043 -0.000000 0.000000
LeftFoot -1.642779 -0.372288 -2.960032
LeftToeBase 1.788556 -0.000000 -0.000000
RightUpLeg -32.630621 -12.410055 6.109406
RightLeg -2.612932 -0.000000 0.000000
RightFoot -5.325365 -4.606428 19.091987
RightToeBase 16.032433 -0.000000 -0.000000
1862
root -0.733968 32.829966 -3.793685 38.034763 2.603231 0.821461
Spine -44.906308 1.375777 -4.312329
Head 11.670698 -15.590371 -13.388415
LeftShoulder -10.862368 43.053254 10.120636
LeftArm 70.436960 33.542080 -51.625886
LeftForeArm 8.372428 -0.000000 5.462869
LeftHand -18.493733 0.000000 -7.567553
LeftHandThumb1 -26.253704 0.000000 33.147579
RightShoulder -22.860321 -7.492035 -45.747637
RightArm -239.127594 33.210782 -224.978268
RightForeArm 85.868229 0.000000 135.044017
RightHand 23.025854 -0.000000 6.644574
RightHandThumb1 -24.326973 -0.000000 -32.862282
LeftUpLeg -32.774363 5.236573 -0.852234
LeftLeg -0.254489 -0.000000 0.000000
LeftFoot -1.620183 -0.339434 -2.895615
LeftToeBase 1.710793 -0.000000 -0.000000
RightUpLeg -32.666049 -12.396178 6.109867
RightLeg -2.614702 -0.000000 0.000000
RightFoot -5.284035 -4.566823 19.126510
RightToeBase 16.030695 -0.000000 -0.000000
1863
root -0.735646 32.829701 -3.799025 38.041869 2.576242 0.810015
Spine -44.893150 1.383344 -4.344659
Head 11.627579 -15.762271 -13.286182
LeftShoulder -10.876831 43.062157 10.106658
LeftArm 70.368744 33.550680 -51.696710
LeftForeArm 8.345425 -0.000000 5.495423
LeftHand -18.465200 -0.000000 -7.649503
LeftHandThumb1 -26.253704 0.000000 33.147579
RightShoulder -22.874627 -7.511220 -45.749692
RightArm -239.112139 33.246978 -225.025178
RightForeArm 85.839763 -0.000000 135.053574
RightHand 23.065394 -0.000000 6.701549
RightHandThumb1 -24.326973 -0.000000 -32.862282
LeftUpLeg -32.792490 5.237889 -0.844513
LeftLeg -0.248064 -0.000000 0.000000
LeftFoot -1.644195 -0.298572 -2.956281
LeftToeBase 1.761405 -0.000000 -0.000000
RightUpLeg -32.691207 -12.393865 6.129821
RightLeg -2.609005 -0.000000 0.000000
RightFoot -5.276126 -4.553588 19.110334
RightToeBase 16.044914 -0.000000 -0.000000
1864
root -0.738585 32.829859 -3.804467 38.051961 2.534674 0.797877
Spine -44.884016 1.399121 -4.386980
Head 11.588798 -15.931258 -13.190465
LeftShoulder -10.872780 43.068341 10.105939
LeftArm 70.271587 33.571956 -51.776010
LeftForeArm 8.207101 0.000000 5.561565
LeftHand -18.492065 -0.000000 -7.507479
LeftHandThumb1 -26.253704 0.000000 33.147579
RightShoulder -22.879855 -7.542195 -45.759087
RightArm -239.089929 33.343146 -225.046453
RightForeArm 85.824535 -0.000000 135.084701
RightHand 23.070344 -0.000000 6.687989
RightHandThumb1 -24.326973 -0.000000 -32.862282
LeftUpLeg -32.804550 5.254103 -0.836493
LeftLeg -0.247125 -0.000000 0.000000
LeftFoot -1.643085 -0.288053 -2.901018
LeftToeBase 1.778250 -0.000000 -0.000000
RightUpLeg -32.710320 -12.368285 6.134871
RightLeg -2.618948 -0.000000 0.000000
RightFoot -5.254579 -4.527318 19.119617
RightToeBase 16.069431 -0.000000 -0.000000
1865
root -0.740872 32.829968 -3.809574 38.057035 2.501281 0.788638
Spine -44.873905 1.396311 -4.428023
Head 11.562892 -16.108792 -13.076706
LeftShoulder -10.877488 43.105519 10.115463
LeftArm 70.208290 33.561642 -51.875682
LeftForeArm 8.276037 -0.000000 5.589259
LeftHand -18.436509 -0.000000 -7.460985
LeftHandThumb1 -26.253704 0.000000 33.147579
RightShoulder -22.868271 -7.552193 -45.763022
RightArm -239.071413 33.416567 -225.065027
RightForeArm 85.829362 -0.000000 135.125376
RightHand 23.048254 -0.000000 6.684069
RightHandThumb1 -24.326973 -0.000000 -32.862282
LeftUpLeg -32.814888 5.251300 -0.830122
LeftLeg -0.250965 -0.000000 0.000000
LeftFoot -1.659244 -0.222435 -2.957413
LeftToeBase 1.837439 -0.000000 -0.000000
RightUpLeg -32.723769 -12.358914 6.141810
RightLeg -2.627898 -0.000000 0.000000
RightFoot -5.222563 -4.505160 19.115821
RightToeBase 16.060023 -0.000000 -0.000000
1866
root -0.743045 32.830221 -3.814653 38.060295 2.468814 0.784269
Spine -44.863216 1.401482 -4.466806
Head 11.539039 -16.322940 -12.992392
LeftShoulder -10.858272 43.113512 10.126322
LeftArm 70.122786 33.576234 -51.945853
LeftForeArm 8.243428 -0.000000 5.647667
LeftHand -18.495655 -0.000000 -7.374376
LeftHandThumb1 -26.253704 0.000000 33.147579
RightShoulder -22.869910 -7.558247 -45.775323
RightArm -239.073690 33.466003 -225.142055
RightForeArm 85.603627 0.000000 135.190158
RightHand 23.111942 -0.000000 6.440466
RightHandThumb1 -24.326973 -0.000000 -32.862282
LeftUpLeg -32.828038 5.269723 -0.838230
LeftLeg -0.241613 -0.000000 0.000000
LeftFoot -1.655534 -0.209867 -2.960929
LeftToeBase 1.796473 -0.000000 -0.000000
RightUpLeg -32.735265 -12.337343 6.137997
RightLeg -2.634869 -0.000000 0.000000
RightFoot -5.206437 -4.486142 19.110001
RightToeBase 16.029553 -0.000000 -0.000000
